<?xml version="1.0" encoding="utf-8"?>
<!-- Generator: Adobe Illustrator 16.0.0, SVG Export Plug-In . SVG Version: 6.00 Build 0)  -->
<!DOCTYPE svg PUBLIC "-//W3C//DTD SVG 1.1//EN" "http://www.w3.org/Graphics/SVG/1.1/DTD/svg11.dtd">
<svg version="1.1" id="Layer_1" xmlns="http://www.w3.org/2000/svg" xmlns:xlink="http://www.w3.org/1999/xlink" x="0px" y="0px"
	 width="64.66px" height="66.381px" viewBox="0 0 64.66 66.381" enable-background="new 0 0 64.66 66.381" xml:space="preserve">
<g>
	<path fill="#eceff1" d="M54.462,55.589l-4.557-5.293l3.309-4.059l0.293-0.361c0.521-0.676,1.014-1.29,1.451-1.779
		c0.181-0.201,0.354-0.388,0.514-0.539V43.53h-0.514h-2.482h-0.659h-3.651l4.883-8.539c0.091-0.148,0.173-0.286,0.259-0.43
		c0.592-0.982,1.104-1.847,1.676-2.703c0.001-0.002,0.003-0.004,0.004-0.006h-0.004h-2.481h-4.312l4.885-8.539
		c0.709-1.173,1.281-2.156,1.938-3.138h-1.859h-1.646c-0.732,0.208-1.531,0.3-2.527,0.3c-0.604,0-1.172-0.112-1.699-0.3
		c-1.777-0.635-3.029-2.248-3.156-4.311h10.448c0.027-0.164,0.056-0.545,0.056-0.846c0-2.865-2.401-6.793-6.713-6.793
		c-3.873,0-6.93,3.247-6.93,7.503c0,1.569,0.492,3.029,1.337,4.235c-0.202,0.038-0.399,0.097-0.593,0.17
		c-1.104,0.418-2.018,1.397-2.501,2.743c-0.062,0.17-0.124,0.337-0.171,0.518c0-0.173,0.002-0.345,0.002-0.518
		c0.001-0.917,0.007-1.829,0.053-2.701H36.11h-0.555l4.884-8.539c0.709-1.173,1.282-2.156,1.938-3.138h-8.539
		c-0.982,0-1.911-0.027-2.51-0.082v2.865c0.627-0.055,1.555-0.082,2.482-0.082h3.956l-4.911,8.458
		c-0.253,0.426-0.518,0.859-0.781,1.284c-1.176-0.707-2.564-1.12-4.074-1.12c-0.913,0-1.781,0.162-2.589,0.446
		c-0.001-0.203-0.004-0.408-0.004-0.61V15.73c0-2.619,1.255-4.529,3.028-4.529c0.9,0,1.474,0.245,2.02,0.627V8.391
		c-0.437,0-0.737-0.164-1.474-0.164c-1.773,0-3.355,1.364-3.901,3.492c0-1.091,0-2.183,0.055-3.219H22.13
		c0.055,0.928,0.055,3.71,0.055,4.638v6.521c0,0.94-0.006,1.9-0.044,2.845c-1.114,1.312-1.784,3.009-1.784,4.875
		c0,1.851,0.673,3.533,1.787,4.834c-0.429,0.165-0.789,0.315-1.152,0.376v3.029c0.846-0.819,2.154-1.446,3.547-1.446
		c0.095,0,0.174,0.019,0.264,0.022c0.771,0.039,1.41,0.236,1.908,0.574c0.983,0.664,1.456,1.83,1.456,3.224v1.173
		c-0.437-0.655-1.746-1.311-3.328-1.311c-3.056,0-4.911,1.965-4.911,4.312c0,0.466,0.081,0.897,0.199,1.308
		c0.368,1.283,1.268,2.276,2.595,2.758c0.585,0.211,1.249,0.326,1.98,0.326c0.51,0,0.977-0.082,1.421-0.199l-4.838,8.33
		c-0.492,0.828-1.026,1.694-1.512,2.433v-2.923c-0.736,0.682-1.91,1.201-3.629,1.201c-2.728,0-4.855-1.965-4.855-4.639
		c0-2.197,1.402-3.979,3.482-4.529c0.426-0.111,0.869-0.19,1.346-0.19c0.606,0,1.127,0.089,1.607,0.22
		c0.56,0.023,1.015,0.055,1.412,0.081v-2.618V43.45c-0.334,0.021-0.709,0.039-1.152,0.051c-0.678,0.02-1.518,0.03-2.64,0.03h-1.35
		h-0.915v-6.794c0-0.777,0.01-1.604,0.024-2.366c0.842,0.276,1.745,0.43,2.687,0.43c2.183,0,3.383-0.464,4.502-0.573V31.09
		c0-1.037,0.027-2.046,0.082-3.083h-2.865c0.055,0.818,0.055,1.801,0.055,2.456v1.255c-0.328,0.164-1.119,0.3-1.691,0.3
		c-2.428,0-4.584-1.91-4.584-4.638c0-1.993,1.146-3.708,3.036-4.38c0.542-0.192,1.137-0.312,1.793-0.312
		c0.728,0,1.374,0.1,1.957,0.252c0.736-0.119,1.335-0.263,1.89-0.345c0.11-0.016,0.22-0.032,0.327-0.043v-3.138
		c0-1.037,0.027-2.046,0.082-3.083h-2.865c0.055,0.818,0.055,1.801,0.055,2.456v1.255c-0.018,0.009-0.049,0.016-0.068,0.025
		c-0.354,0.151-1.08,0.275-1.623,0.275c-0.515,0-1.011-0.103-1.482-0.264c-1.756-0.6-3.101-2.225-3.101-4.375
		c0-2.564,1.882-4.693,4.828-4.693c1.692,0,3.029,0.464,3.848,1.146V8.827c-1.064-0.109-1.965-0.545-4.229-0.545
		c-4.037,0-7.721,3.028-7.721,7.421c0,2.531,1.137,4.573,2.889,5.869c-1.729,1.312-2.888,3.345-2.888,5.808
		c0,1.932,0.664,3.577,1.756,4.826c0.048,0.986,0.09,2.875,0.09,4.531v4.611c0,1.166-0.05,3.164-0.102,4.646
		c-1.088,1.255-1.745,2.886-1.745,4.765c0,4.257,3.329,7.394,7.831,7.394c1.585,0,2.636-0.307,3.528-0.441
		c-0.044,0.062-0.093,0.137-0.135,0.197h9.03c0.982,0,1.91,0.027,2.51,0.082v-2.865c-0.6,0.055-1.555,0.082-2.482,0.082h-4.311
		l4.884-8.539c0.106-0.176,0.205-0.341,0.307-0.51c0.349,0.253,0.787,0.4,1.31,0.4c0.575,0,1.004-0.09,1.364-0.24
		c0.005,0.007,0.01,0.014,0.015,0.021l3.438,5.211l0.026,3.356c0,1.31-0.055,2.401-0.108,3.001h3.384
		c-0.055-0.6-0.082-1.691-0.082-3.001v-3.384l3.411-5.184c0.569-0.887,1.073-1.609,1.563-2.257c0.029,0.632,0.047,1.312,0.051,1.958
		c0,0.062,0.002,0.128,0.002,0.189c0,0.055,0.001,0.11,0.001,0.164v8.648c0,0.955-0.027,2.237-0.109,2.865h3.466
		c-0.082-0.627-0.109-1.855-0.109-2.865v-3.847l4.201,4.993c0.52,0.6,1.01,1.199,1.311,1.719h4.338
		C55.882,57.171,55.281,56.544,54.462,55.589z M47.884,10.601c1.91,0,2.92,1.364,3.41,3.001h-6.902
		C44.964,11.801,46.302,10.601,47.884,10.601z M36.158,22.878c0.004,0.791,0.004,1.538,0.004,1.937v6.521
		c0,0.315-0.002,0.635-0.004,0.953c-1.248,0.68-2.099,1.851-2.099,3.438c0,4.256,5.483,4.312,5.483,6.875
		c0,0.955-0.765,1.582-1.91,1.582c-1.229,0-3.164-0.654-3.93-1.746v1.092h-2.125c-0.151-0.272-0.248-0.688-0.248-1.311v-3.929
		c0-1.587-0.213-2.867-0.659-3.872c2.974-1.05,5.045-3.8,5.045-7.041c0-1.695-0.559-3.247-1.5-4.501L36.158,22.878L36.158,22.878z
		 M26.441,31.67c-1.735-0.641-2.975-2.309-2.975-4.291c0-2.538,2.019-4.638,4.529-4.638c2.537,0,4.61,2.101,4.61,4.638
		s-2.073,4.583-4.61,4.583c-0.046,0-0.089-0.012-0.134-0.014C27.362,31.935,26.888,31.835,26.441,31.67z M25.738,39.901
		c1.419,0,2.592,1.037,2.592,2.266c0,0.516-0.205,0.984-0.537,1.364c-0.476,0.544-1.219,0.899-2.055,0.899
		c-0.965,0-1.703-0.355-2.154-0.899c-0.313-0.38-0.492-0.849-0.492-1.364C23.092,40.938,24.101,39.901,25.738,39.901z
		 M37.076,48.959l-1.74-2.771c0.778,0.174,1.723,0.343,2.762,0.343c0.206,0,0.4-0.026,0.599-0.044L37.076,48.959z M43.923,43.53
		h-0.455H42.86c0.104-0.358,0.177-0.734,0.177-1.146c0-4.693-5.483-4.638-5.483-6.93c0-0.37,0.106-0.668,0.286-0.9
		c0.31-0.4,0.834-0.601,1.404-0.601c0.063,0,0.131,0.008,0.194,0.011c1.104,0.057,2.376,0.579,2.942,1.326v-3.247
		c-0.721-0.025-1.607-0.364-2.996-0.424c0-0.095-0.002-0.191-0.002-0.285v-3.929c0-2.405,1.062-4.193,2.609-4.472
		c0.116-0.021,0.231-0.045,0.354-0.048c0.021-0.001,0.041-0.009,0.062-0.009c0.9,0,1.475,0.245,2.021,0.627v-0.578V21.97
		c0.63,0.398,1.325,0.705,2.075,0.905c0.645,0.173,1.324,0.273,2.035,0.273c0.695,0,1.271-0.044,1.764-0.11l-4.815,8.294
		c-0.099,0.166-0.2,0.333-0.302,0.5c-0.419,0.692-0.852,1.387-1.249,1.99c-0.174,0.263-0.341,0.509-0.496,0.729h0.496h2.481h3.955
		l-4.91,8.458c-0.102,0.172-0.207,0.346-0.312,0.518h-1.228V43.53z M46.796,50.133v-3.737c0-0.053,0-0.11,0-0.164h3.068
		L46.796,50.133z"/>
</g>
</svg>
